<?xml version="1.0" standalone="no"?>
<!DOCTYPE svg PUBLIC "-//W3C//DTD SVG 20010904//EN"
 "http://www.w3.org/TR/2001/REC-SVG-20010904/DTD/svg10.dtd">
<svg version="1.0" xmlns="http://www.w3.org/2000/svg"
 width="663.000000pt" height="599.000000pt" viewBox="0 0 663.000000 599.000000"
 preserveAspectRatio="xMidYMid meet">

<g transform="translate(0.000000,599.000000) scale(0.100000,-0.100000)"
fill="#000000" stroke="none">
<path d="M2934 5498 c-3 -5 -13 -8 -22 -7 -35 3 -49 -2 -49 -17 0 -11 7 -14
21 -10 12 3 93 9 182 12 128 6 161 10 161 21 0 11 -20 14 -94 12 -51 -1 -96
-6 -99 -10 -3 -5 -11 -6 -17 -2 -18 11 -38 12 -31 2 3 -5 -2 -9 -11 -9 -9 0
-14 4 -11 8 3 5 -2 9 -10 9 -8 0 -17 -4 -20 -9z"/>
<path d="M2041 5227 c-13 -12 -21 -17 -17 -10 4 8 0 8 -18 0 -13 -7 -22 -15
-20 -19 3 -5 -1 -8 -9 -8 -7 0 -22 -8 -33 -17 -10 -10 -27 -19 -37 -21 -23 -4
-117 -74 -111 -84 4 -7 51 18 144 77 25 16 54 31 65 32 10 2 30 14 44 26 13
12 21 15 16 7 -5 -8 4 -4 18 9 15 14 27 25 27 26 0 0 -10 1 -23 3 -13 1 -34
-9 -46 -21z"/>
<path d="M4293 5239 c1 -6 40 -31 87 -56 295 -157 597 -414 799 -679 46 -60
88 -108 93 -106 5 1 7 -2 3 -8 -3 -5 12 -36 33 -67 43 -64 92 -150 91 -159 -1
-3 8 -17 20 -30 11 -13 20 -26 20 -29 -2 -12 24 -65 32 -65 4 0 6 -9 4 -20 -2
-11 1 -22 6 -26 9 -5 26 -39 35 -69 2 -5 17 -48 35 -95 46 -125 90 -281 87
-310 -2 -14 2 -24 8 -23 6 1 10 -10 10 -25 -1 -15 5 -40 13 -57 14 -29 13 -29
-5 -15 -18 14 -18 14 -4 -4 8 -10 16 -33 17 -50 3 -44 10 -101 13 -103 7 -8 5
-50 -2 -60 -5 -6 -5 -14 0 -17 5 -3 8 -23 7 -46 -1 -23 3 -40 9 -40 6 0 5 -4
-3 -9 -11 -7 -12 -13 -4 -23 7 -9 8 -70 2 -188 -12 -273 -50 -479 -134 -723
-25 -72 -47 -139 -49 -147 -2 -8 -8 -14 -14 -13 -6 1 -9 -5 -8 -15 2 -9 -11
-44 -27 -77 -59 -118 -57 -112 -42 -112 8 0 12 4 9 9 -3 4 -1 8 4 8 9 0 67
119 97 200 9 25 21 54 27 65 5 12 10 27 11 35 2 8 6 20 9 26 4 6 9 22 12 36 2
15 9 35 14 45 6 10 10 21 11 26 0 4 3 17 6 30 4 13 7 31 9 40 1 9 5 20 9 23 4
4 7 17 7 29 0 13 6 27 13 33 6 6 11 28 11 49 -1 21 1 43 4 48 7 11 11 27 16
70 3 17 5 32 7 35 5 11 9 59 11 132 2 44 7 76 13 75 5 -1 8 24 7 63 -1 36 -3
79 -3 95 -1 17 1 40 4 52 3 13 3 25 -1 27 -4 2 -8 42 -10 88 -3 106 -31 312
-42 316 -5 2 -6 10 -4 17 3 8 -6 63 -21 122 -15 59 -29 115 -30 123 -2 8 -4
15 -5 15 -1 0 -3 7 -5 15 -2 8 -12 38 -23 65 -10 28 -18 59 -16 68 1 9 -4 17
-12 17 -9 0 -13 4 -10 8 5 8 -2 25 -62 157 -31 67 -69 136 -179 329 -7 11 -13
17 -13 11 0 -5 -10 9 -23 33 -12 23 -36 57 -52 75 -17 18 -32 37 -35 42 -3 6
-9 9 -15 7 -5 -2 -7 0 -2 4 4 4 1 14 -7 23 -8 9 -16 20 -18 26 -2 5 -6 9 -10
8 -4 -2 -14 9 -22 25 -9 15 -73 83 -145 152 -139 134 -200 186 -213 182 -4 -1
-7 2 -6 7 2 5 0 9 -5 10 -4 0 -18 11 -32 23 -36 34 -49 44 -60 46 -5 1 -10 8
-10 15 0 6 -4 12 -10 12 -5 0 -16 4 -22 8 -7 5 -13 5 -13 2 0 -3 -6 0 -14 7
-8 7 -11 17 -8 22 3 5 0 6 -6 2 -6 -3 -13 -2 -17 4 -4 6 -10 8 -14 5 -5 -2
-16 4 -26 15 -10 11 -23 20 -28 20 -6 0 -22 10 -35 23 -14 12 -21 15 -17 7 6
-11 3 -10 -12 3 -11 9 -23 14 -26 10 -4 -3 -7 -2 -7 4 0 11 -59 40 -72 35 -5
-1 -8 3 -8 8 0 6 -4 10 -10 10 -5 0 -9 -5 -7 -11z"/>
<path d="M832 4768 c-19 -10 -34 -13 -37 -7 -4 5 -12 6 -18 2 -7 -4 -21 -9
-31 -10 -11 -2 -26 -9 -35 -16 -12 -10 -13 -9 -6 3 8 13 6 13 -8 1 -9 -7 -15
-17 -12 -20 2 -4 -2 -8 -10 -8 -8 0 -11 5 -8 10 4 6 1 7 -8 1 -8 -5 -18 -9
-24 -9 -5 -1 -9 -6 -8 -13 2 -7 -3 -11 -10 -9 -6 1 -11 -4 -9 -12 3 -12 1 -12
-14 0 -12 9 -15 9 -10 2 4 -8 2 -13 -6 -13 -18 0 -80 -64 -72 -73 4 -4 0 -7
-9 -7 -10 0 -15 -7 -12 -20 2 -11 1 -19 -3 -17 -4 1 -7 -1 -7 -4 0 -4 -9 -16
-19 -28 -11 -12 -16 -21 -11 -21 4 0 1 -7 -6 -16 -17 -21 -20 -42 -5 -40 20 3
36 17 30 27 -3 5 0 8 8 7 8 -2 13 6 12 19 -1 12 4 21 10 20 6 -1 10 4 8 11 -1
6 3 11 10 10 7 -2 12 3 13 10 0 6 15 25 34 41 35 30 116 77 106 62 -3 -5 6 -4
19 2 13 7 22 16 18 22 -3 5 3 3 13 -5 11 -9 16 -10 11 -2 -5 8 0 12 18 12 14
0 28 5 31 10 5 8 11 8 20 0 9 -8 15 -8 20 0 3 5 16 10 29 10 12 0 26 3 30 7 9
9 37 13 32 4 -3 -3 15 -7 39 -7 24 0 42 4 39 7 -5 8 17 6 31 -3 13 -8 14
-1387 1 -1407 -7 -10 -5 -12 5 -6 8 5 7 0 -4 -12 -9 -11 -14 -23 -10 -26 3 -4
-1 -7 -11 -7 -9 0 -14 -4 -11 -10 3 -5 -1 -10 -10 -10 -9 0 -13 -4 -10 -10 3
-5 -1 -10 -10 -10 -9 0 -13 -5 -10 -10 4 -6 3 -10 -2 -9 -4 1 -21 1 -37 0 -24
-1 -26 -3 -16 -16 10 -12 75 -14 423 -14 226 0 416 3 421 7 16 10 37 11 31 2
-7 -12 15 -7 52 12 17 9 34 13 38 10 10 -10 35 -11 29 -1 -4 8 34 14 59 10 5
-1 6 3 2 9 -3 6 3 10 16 10 13 0 34 10 47 23 14 12 21 15 17 7 -8 -13 -7 -13
8 -1 9 7 17 10 17 6 0 -4 6 -2 13 4 8 6 18 7 22 3 5 -4 5 -2 2 4 -4 7 1 18 10
25 14 12 16 12 8 -1 -8 -13 -6 -13 8 -1 9 7 14 18 10 25 -4 6 2 4 12 -4 11 -9
16 -10 11 -2 -4 7 -2 12 6 12 14 0 155 137 160 155 2 6 6 9 10 8 4 -2 5 6 3
17 -2 11 -1 19 3 17 4 -1 8 3 10 8 2 6 10 17 18 26 8 9 11 19 7 23 -5 4 -1 6
7 4 8 -2 14 5 15 17 0 11 5 27 10 35 5 8 10 24 10 35 1 11 6 19 11 18 6 -1 10
18 9 47 -1 29 3 48 9 47 6 -1 10 21 11 53 1 32 5 54 11 53 6 -1 10 15 9 35 -1
26 -6 36 -15 34 -12 -3 -11 0 1 15 17 20 19 70 4 93 -5 8 -10 38 -10 65 -1 29
-5 49 -11 48 -6 -1 -10 15 -9 38 1 22 -4 44 -11 50 -7 6 -11 19 -9 29 2 11 -1
23 -7 26 -7 5 -8 2 -3 -7 5 -8 4 -11 -1 -6 -5 5 -9 18 -9 30 -1 12 -6 21 -12
20 -7 -2 -10 6 -8 17 2 10 -3 24 -11 30 -7 7 -11 16 -8 21 3 5 -2 9 -10 9 -9
0 -15 6 -13 13 1 6 -3 11 -10 10 -7 -2 -10 6 -8 18 3 17 2 19 -10 9 -12 -10
-13 -8 -10 8 2 12 -7 29 -23 43 l-27 24 25 -30 c13 -16 1 -8 -27 19 -29 27
-49 54 -46 60 4 6 -1 5 -11 -3 -14 -12 -17 -12 -14 -1 2 7 -7 19 -19 25 -13 7
-20 16 -15 21 4 5 3 6 -2 1 -5 -4 -18 1 -29 10 -15 13 -18 14 -12 3 6 -10 1
-9 -13 4 -28 24 -114 68 -105 53 5 -8 2 -8 -8 0 -12 10 -18 10 -29 0 -8 -7
-11 -8 -7 -1 4 7 -1 18 -10 25 -14 12 -16 12 -8 -1 6 -12 5 -13 -6 -2 -7 6
-24 12 -37 12 -13 0 -21 4 -18 8 3 5 -1 9 -9 9 -8 0 -12 -3 -10 -7 2 -4 -2 -7
-10 -7 -8 0 -12 4 -9 9 3 4 -10 8 -29 8 -18 0 -37 3 -41 7 -9 10 -156 11 -150
2 5 -9 -23 -5 -32 4 -9 9 -589 9 -598 0 -9 -9 -37 -13 -32 -4 9 14 -62 6 -92
-11z m910 -62 c9 -4 22 -8 30 -10 7 -1 19 -6 27 -10 9 -6 12 -5 8 1 -3 5 0 10
8 10 8 0 12 -4 9 -9 -3 -4 7 -8 21 -8 18 0 24 -4 19 -12 -5 -8 0 -7 11 2 10 8
16 10 13 5 -4 -6 5 -15 18 -22 18 -8 22 -8 17 0 -3 7 3 4 14 -6 11 -9 23 -14
28 -10 4 5 5 3 2 -3 -4 -7 1 -18 10 -25 14 -12 16 -12 8 1 -5 9 0 8 13 -4 12
-11 32 -24 45 -31 12 -6 21 -17 20 -23 -2 -7 3 -11 10 -9 6 1 11 -4 10 -10 -2
-7 3 -12 10 -10 6 1 11 -4 10 -10 -2 -7 1 -12 6 -10 5 1 10 -2 11 -8 1 -5 8
-17 16 -26 8 -9 11 -19 7 -23 -5 -4 -1 -6 7 -4 8 2 15 -4 15 -12 0 -8 6 -14
12 -13 7 2 10 -6 8 -17 -2 -11 1 -19 8 -17 6 1 11 -7 12 -18 0 -11 5 -27 10
-35 5 -8 10 -24 10 -35 1 -11 7 -19 14 -17 7 1 10 -2 7 -7 -4 -5 -2 -13 4 -16
8 -5 7 -11 -1 -21 -10 -12 -6 -18 11 -16 3 0 6 -23 6 -51 0 -29 4 -51 9 -50
13 2 13 -282 1 -294 -5 -5 -6 -2 -1 6 5 9 4 12 -2 8 -5 -3 -9 -29 -8 -57 1
-28 -3 -54 -8 -57 -6 -4 -7 -1 -2 7 5 8 4 11 -2 7 -6 -4 -9 -20 -8 -37 1 -16
-3 -34 -11 -40 -7 -6 -11 -20 -9 -30 2 -11 -1 -23 -7 -26 -7 -5 -8 -2 -3 6 5
8 4 11 -3 6 -6 -3 -9 -15 -7 -26 3 -13 -2 -20 -12 -20 -9 0 -13 -3 -10 -7 4
-3 -1 -16 -10 -27 -17 -20 -17 -20 2 -6 12 8 8 1 -8 -16 -15 -17 -24 -33 -20
-37 3 -4 -1 -7 -11 -7 -9 0 -14 -4 -11 -10 3 -5 -1 -10 -10 -10 -9 0 -13 -4
-10 -10 3 -5 -1 -10 -10 -10 -9 0 -13 -4 -10 -10 3 -5 -1 -10 -10 -10 -9 0
-13 -4 -10 -10 3 -5 -1 -10 -10 -10 -9 0 -13 -4 -10 -10 3 -5 -1 -10 -10 -10
-9 0 -13 -4 -10 -10 3 -5 1 -10 -6 -10 -7 0 -24 -10 -37 -22 -14 -13 -21 -16
-17 -8 8 13 6 13 -8 1 -9 -7 -14 -18 -10 -25 4 -6 -2 -4 -12 4 -10 8 -16 10
-13 5 4 -6 -5 -15 -18 -22 -13 -6 -21 -7 -18 -2 3 5 -11 0 -31 -11 -20 -11
-34 -16 -30 -10 4 6 -8 2 -27 -8 -28 -15 -51 -20 -60 -12 -10 7 -37 7 -32 -1
3 -5 -106 -9 -268 -9 l-273 0 0 743 0 742 280 -1 c154 0 288 -4 297 -8z"/>
<path d="M2200 4586 c0 -2 8 -10 18 -17 15 -13 16 -12 3 4 -13 16 -21 21 -21
13z"/>
<path d="M3619 4573 c-6 -6 -17 -9 -25 -6 -8 3 -22 -1 -31 -8 -13 -11 -15 -11
-9 -1 7 11 4 11 -15 0 -13 -7 -35 -22 -48 -33 -15 -12 -21 -14 -16 -5 8 13 6
13 -8 1 -9 -7 -14 -17 -11 -22 3 -5 0 -8 -8 -7 -7 2 -12 -3 -10 -9 1 -7 -4
-12 -10 -10 -7 1 -12 -4 -11 -10 2 -7 -3 -12 -10 -10 -6 1 -11 -4 -10 -10 2
-7 -3 -12 -10 -10 -6 1 -11 -4 -10 -10 2 -7 -2 -12 -9 -10 -7 1 -12 -5 -13
-13 0 -8 -7 -14 -15 -12 -8 2 -12 0 -7 -4 4 -4 0 -15 -9 -25 -8 -9 -16 -24
-18 -32 -1 -8 -8 -22 -15 -31 -7 -9 -10 -16 -6 -16 5 0 0 -9 -10 -20 -10 -11
-15 -20 -10 -20 4 0 1 -7 -6 -16 -7 -9 -14 -25 -16 -36 -2 -10 -10 -32 -18
-47 -22 -43 -27 -81 -9 -74 8 3 14 9 14 14 0 5 7 26 17 47 9 20 17 42 18 47 0
6 7 9 14 7 7 -1 10 2 7 7 -3 5 1 14 8 21 8 6 13 20 11 31 -2 10 0 19 6 19 5 0
8 6 7 13 -2 6 3 11 10 9 6 -1 11 4 10 10 -2 7 2 12 9 11 7 -2 10 6 8 17 -2 11
1 19 8 17 7 -1 11 4 10 10 -2 7 3 12 10 10 7 -1 12 7 11 20 -1 12 4 21 10 20
6 -1 10 4 9 10 -2 7 3 12 10 10 6 -1 11 4 9 11 -1 8 2 11 6 8 10 -6 45 28 37
35 -2 3 5 6 17 6 11 1 28 9 37 17 10 9 21 13 26 9 4 -5 5 -2 1 5 -4 7 -1 12 9
12 9 0 14 4 11 8 -3 5 1 9 9 9 8 0 12 -3 10 -7 -2 -3 12 -6 30 -6 18 0 32 3
29 7 -9 15 26 2 47 -17 14 -12 19 -13 14 -4 -4 8 4 4 18 -9 15 -13 24 -28 21
-33 -3 -5 0 -7 7 -6 7 2 14 -4 14 -12 0 -8 5 -14 11 -13 14 2 11 -81 -4 -99
-6 -8 -9 -18 -5 -21 3 -4 -1 -7 -10 -7 -10 0 -15 -7 -12 -20 2 -11 1 -19 -3
-17 -4 1 -8 -2 -9 -6 0 -5 -13 -21 -27 -36 -15 -15 -23 -30 -19 -34 3 -4 -1
-7 -11 -7 -9 0 -14 -4 -11 -10 3 -5 -1 -10 -9 -10 -10 0 -13 -7 -11 -21 3 -17
2 -19 -10 -9 -12 10 -13 8 -10 -9 2 -12 -1 -20 -8 -18 -7 1 -11 -4 -9 -11 1
-6 -4 -11 -10 -10 -7 2 -12 -3 -10 -10 1 -6 -4 -11 -10 -10 -7 2 -12 -3 -10
-10 1 -6 -4 -11 -10 -10 -7 2 -12 -3 -10 -10 1 -6 -4 -11 -10 -10 -7 2 -12 -3
-10 -10 1 -6 -4 -11 -10 -10 -7 2 -12 -3 -10 -10 1 -6 -4 -11 -10 -10 -7 2
-12 -3 -10 -10 1 -6 -4 -11 -10 -10 -7 2 -12 -3 -10 -10 1 -6 -4 -11 -10 -10
-7 2 -12 -3 -10 -11 3 -12 1 -12 -14 0 -12 9 -15 9 -10 2 4 -8 1 -13 -9 -13
-9 0 -13 -4 -10 -10 3 -5 -1 -10 -10 -10 -9 0 -13 -4 -10 -10 3 -5 -1 -10 -10
-10 -9 0 -13 -4 -10 -10 3 -5 0 -10 -7 -10 -7 0 -35 -24 -63 -53 -27 -29 -67
-65 -87 -81 -21 -16 -35 -33 -31 -40 3 -6 2 -8 -2 -3 -5 4 -19 -3 -32 -15 -13
-12 -24 -18 -24 -15 -1 4 -2 16 -3 27 -2 32 -21 23 -20 -10 1 -30 -32 -71 -78
-95 -13 -6 -22 -18 -20 -25 3 -11 0 -11 -14 1 -12 9 -15 9 -10 2 4 -8 1 -13
-9 -13 -9 0 -13 -4 -10 -10 3 -5 -1 -10 -10 -10 -9 0 -13 -4 -10 -10 3 -5 0
-10 -8 -10 -8 0 -20 -7 -27 -15 -7 -8 -17 -12 -23 -8 -6 3 -7 1 -3 -5 4 -7 1
-12 -7 -12 -8 0 -21 -8 -28 -17 -13 -17 -13 -17 6 -3 19 14 19 14 6 -2 -7 -10
-17 -16 -21 -13 -5 3 -11 1 -15 -5 -4 -6 -11 -7 -17 -4 -7 4 -8 2 -4 -4 4 -7
1 -12 -9 -12 -9 0 -13 -4 -10 -10 3 -5 -1 -10 -10 -10 -9 0 -13 -4 -10 -10 3
-5 0 -10 -7 -10 -8 0 -36 -22 -62 -49 -27 -28 -54 -49 -60 -48 -6 1 -10 -4 -8
-11 1 -6 -4 -11 -10 -10 -7 2 -12 -3 -10 -10 1 -6 -4 -11 -10 -10 -7 2 -12 -3
-10 -11 3 -12 1 -12 -14 0 -12 9 -15 9 -10 2 4 -8 1 -13 -9 -13 -9 0 -13 -4
-10 -10 3 -5 -1 -10 -10 -10 -9 0 -13 -4 -10 -10 3 -5 -1 -10 -10 -10 -9 0
-13 -4 -10 -10 3 -5 -1 -10 -10 -10 -9 0 -13 -4 -10 -10 3 -5 -1 -10 -10 -10
-9 0 -13 -4 -10 -10 3 -5 -1 -10 -10 -10 -9 0 -13 -4 -10 -10 3 -5 -1 -10 -10
-10 -9 0 -13 -4 -10 -10 3 -5 -1 -10 -10 -10 -11 0 -15 -5 -11 -15 3 -9 0 -15
-10 -15 -8 0 -12 -4 -9 -10 3 -5 -1 -10 -10 -10 -9 0 -13 -4 -10 -10 3 -5 -1
-10 -9 -10 -10 0 -13 -7 -11 -21 3 -17 2 -19 -10 -9 -12 10 -13 8 -10 -9 2
-12 -1 -20 -8 -18 -7 1 -11 -4 -9 -11 1 -8 -2 -11 -6 -8 -5 3 -18 -4 -28 -17
-19 -21 -19 -21 1 -7 18 13 -29 -46 -48 -61 -5 -3 -9 -10 -10 -15 -1 -5 -6 -8
-10 -6 -5 1 -6 -2 -3 -7 3 -5 -1 -14 -8 -21 -8 -6 -13 -20 -11 -31 2 -11 -2
-19 -10 -19 -8 0 -12 -8 -10 -20 2 -11 -1 -23 -7 -26 -7 -5 -8 -2 -3 6 5 8 4
11 -3 7 -5 -4 -9 -15 -7 -25 1 -9 -3 -23 -9 -31 -9 -12 -8 -13 4 -6 13 8 13 7
0 -10 -8 -10 -16 -26 -16 -37 -1 -10 -2 -25 -3 -34 0 -8 -5 -13 -9 -10 -11 7
-9 -81 2 -91 5 -5 6 -2 1 6 -5 9 -4 12 2 8 5 -4 9 -24 8 -47 -1 -22 4 -45 11
-51 7 -6 11 -19 9 -29 -2 -11 -1 -19 3 -17 4 1 8 -2 10 -8 2 -5 10 -17 17 -25
7 -8 15 -19 17 -25 2 -5 6 -9 11 -7 4 1 6 -3 5 -10 -2 -6 7 -17 20 -23 13 -7
24 -16 25 -21 1 -5 5 -8 10 -6 4 1 6 -3 5 -10 -2 -6 7 -17 19 -23 13 -7 20
-15 15 -19 -4 -4 -2 -7 3 -6 26 6 46 -1 39 -12 -5 -8 0 -7 11 2 10 8 16 10 12
4 -4 -7 1 -18 10 -25 12 -10 15 -10 9 -1 -4 7 8 4 27 -7 23 -13 38 -16 45 -9
6 6 12 6 16 -1 4 -7 42 -11 92 -11 49 0 83 4 80 9 -4 5 2 8 11 6 10 -2 18 -4
18 -5 0 -7 36 -6 41 1 3 5 15 9 28 9 12 0 28 6 35 13 11 10 12 9 6 -3 -8 -13
-7 -13 8 -1 9 7 17 10 17 6 0 -5 10 0 22 11 12 10 18 14 15 7 -11 -18 19 -9
44 13 14 11 19 13 14 4 -8 -13 -7 -13 8 -1 9 7 17 10 17 6 0 -5 9 0 20 10 11
10 20 15 20 12 0 -3 19 2 42 13 23 10 47 16 53 13 5 -4 7 -3 3 2 -5 5 0 13 10
19 96 57 202 135 202 148 0 6 7 8 15 4 8 -3 15 0 15 6 0 6 7 20 17 30 9 11 11
18 5 18 -7 0 -12 -4 -12 -10 0 -5 -4 -10 -10 -10 -5 0 -16 21 -24 48 -20 67
-36 105 -41 100 -2 -2 7 -35 20 -74 14 -38 25 -74 25 -81 0 -18 -173 -140
-212 -149 -5 -1 -11 -3 -15 -4 -5 -1 -12 -2 -16 -1 -5 1 -6 -2 -4 -6 3 -5 -6
-13 -19 -20 -13 -6 -21 -7 -18 -2 3 5 -11 0 -31 -11 -20 -11 -34 -16 -30 -10
4 6 -10 1 -30 -10 -20 -11 -34 -16 -30 -10 4 6 -10 1 -30 -10 -20 -11 -34 -17
-31 -12 3 5 -1 9 -9 9 -8 0 -12 -4 -9 -9 3 -4 -7 -8 -21 -8 -14 0 -24 -4 -21
-8 3 -5 -1 -9 -9 -9 -8 0 -12 3 -10 7 6 9 -42 6 -51 -3 -12 -11 -169 -8 -181
4 -7 7 -13 8 -17 0 -4 -7 -19 -3 -42 10 -20 11 -32 14 -28 7 4 -7 -9 3 -29 21
-21 19 -37 31 -37 27 0 -5 -6 -3 -13 3 -8 6 -17 8 -20 5 -4 -4 -5 3 -2 15 2
13 -1 21 -9 21 -8 0 -20 8 -27 18 -13 16 -12 16 6 2 13 -9 11 -5 -6 15 -17 19
-25 40 -24 58 1 15 -3 27 -9 27 -14 0 -15 118 -1 140 5 8 10 24 10 35 1 11 6
19 12 18 6 -1 9 10 8 27 -1 17 2 28 9 27 6 -1 10 4 8 11 -1 6 3 11 10 10 7 -2
12 4 13 12 1 8 7 13 15 12 8 -2 12 0 7 4 -4 4 5 20 20 36 15 15 23 28 17 28
-5 0 2 6 16 13 16 8 25 21 24 34 -1 12 4 21 10 20 6 -1 10 4 8 11 -1 6 4 11
10 10 7 -2 12 3 10 10 -1 6 4 11 10 10 7 -2 12 3 10 10 -1 6 4 11 10 10 7 -2
12 3 10 10 -1 6 4 11 10 10 7 -2 12 3 10 10 -1 6 4 11 10 10 7 -2 12 3 10 10
-1 6 4 11 10 10 7 -2 12 3 10 10 -1 6 4 11 10 10 7 -2 12 3 10 10 -1 6 4 11
10 10 7 -2 12 3 10 11 -3 12 -1 12 15 1 10 -8 15 -10 11 -6 -5 5 2 14 13 20
12 6 21 15 20 20 -1 5 8 14 21 20 13 7 22 20 22 29 -1 9 2 15 6 12 4 -2 20 9
35 25 15 16 33 27 38 23 6 -3 7 -1 3 5 -4 7 -1 12 9 12 9 0 14 4 11 9 -3 5 2
15 11 22 14 12 16 12 8 -1 -8 -13 -6 -13 8 -1 9 7 14 17 11 22 -3 5 0 8 8 7 7
-2 12 3 11 9 -2 7 3 12 10 10 6 -1 11 4 9 12 -2 11 0 12 11 3 11 -10 17 -9 26
1 6 8 7 17 3 21 -4 4 0 6 8 4 8 -2 14 3 12 10 -1 8 2 11 6 8 5 -3 17 3 27 14
10 11 22 17 27 14 4 -3 7 -1 6 5 -3 10 60 71 73 71 6 0 11 -32 25 -162 1 -10
2 -36 3 -58 0 -22 6 -40 12 -40 8 0 10 17 5 58 -4 31 -9 97 -12 145 -5 83 -4
89 15 94 11 3 18 9 15 14 -3 5 1 9 8 9 8 0 36 23 63 50 27 28 55 50 62 50 16
0 44 41 36 54 -4 6 2 4 13 -4 10 -8 16 -10 12 -6 -5 5 2 14 15 21 12 6 21 17
19 24 -1 7 2 10 6 7 5 -3 17 3 27 14 10 11 22 17 27 14 4 -3 7 0 6 8 -2 7 3
12 9 11 7 -2 12 2 10 8 -1 6 12 19 28 29 17 10 29 24 27 31 -2 8 0 11 4 6 4
-4 16 1 27 10 15 13 18 14 12 3 -8 -13 -7 -13 8 -1 10 8 15 16 12 19 -3 3 5
10 16 16 12 6 21 15 20 20 -1 5 8 14 20 20 12 6 21 15 20 20 -1 5 8 14 20 20
12 6 21 16 21 21 0 6 6 17 14 26 8 9 11 19 7 23 -5 4 -1 6 7 4 8 -1 14 3 12
10 -1 6 3 11 10 10 7 -2 13 4 13 12 1 8 6 14 13 12 7 -1 11 4 10 10 -2 7 4 11
12 10 8 -2 12 0 7 4 -4 4 0 16 10 26 9 10 12 18 7 18 -5 0 -3 4 4 9 7 4 15 17
16 27 2 10 10 17 17 16 8 -2 11 0 7 4 -4 4 -2 14 5 22 6 8 12 25 12 36 1 12 6
20 11 19 6 -1 10 13 10 30 -1 18 4 31 10 30 14 -2 11 136 -3 145 -5 4 -9 15
-8 24 2 9 -3 22 -11 29 -8 6 -11 15 -8 20 3 5 -2 9 -11 9 -9 0 -13 5 -10 10 3
6 -1 10 -10 10 -9 0 -13 5 -10 10 3 6 0 10 -8 10 -8 0 -22 9 -32 20 -15 16
-21 18 -33 7 -13 -9 -14 -9 -8 1 5 9 -3 12 -29 12 -20 0 -34 4 -31 8 8 13 -64
9 -75 -5z m-1238 -2380 c13 -16 12 -17 -3 -4 -10 7 -18 15 -18 17 0 8 8 3 21
-13z"/>
<path d="M4043 3179 c-5 -3 -31 -14 -59 -23 -90 -29 -152 -77 -240 -184 -10
-13 -27 -33 -37 -45 -10 -12 -25 -35 -33 -52 -29 -61 -181 -263 -276 -368 -76
-84 -54 -79 27 6 41 42 79 77 85 77 5 0 9 3 8 8 -4 15 14 52 23 47 5 -4 9 0 9
8 0 7 14 26 30 42 17 16 30 33 30 37 0 5 10 19 21 31 12 12 18 16 14 8 -5 -9
-4 -12 3 -7 6 3 9 15 7 26 -2 11 1 19 8 17 6 -1 12 5 12 13 1 8 7 14 14 12 7
-1 10 2 7 7 -4 5 0 15 7 23 7 7 15 18 18 23 2 6 8 9 12 7 5 -1 6 2 2 8 -8 12
44 82 56 74 5 -3 7 1 4 8 -3 7 20 37 50 67 30 30 55 50 55 46 0 -4 8 -1 18 7
49 42 208 60 248 28 10 -8 15 -10 11 -3 -5 8 -1 8 17 0 13 -7 22 -16 18 -22
-3 -5 3 -3 13 5 10 8 16 10 12 4 -4 -7 1 -18 10 -25 10 -9 14 -9 10 -2 -5 8 1
8 19 -2 15 -8 31 -12 35 -10 4 3 6 -3 5 -12 0 -9 9 -22 21 -28 13 -7 20 -16
15 -21 -4 -5 -3 -6 2 -1 5 4 22 -4 37 -19 21 -20 29 -23 35 -12 12 18 14 39 4
33 -4 -3 -21 10 -36 27 -15 18 -31 32 -36 31 -4 -2 -7 2 -5 9 1 6 -8 17 -20
23 -13 7 -31 19 -41 28 -13 12 -22 14 -30 7 -7 -6 -10 -7 -7 -3 10 13 -39 30
-54 19 -11 -8 -13 -8 -7 2 5 9 -7 12 -49 12 -31 0 -54 4 -51 8 6 10 -41 11
-51 1z"/>
<path d="M3125 3075 c6 -53 15 -98 22 -105 8 -8 -8 113 -18 130 -5 9 -6 -1 -4
-25z"/>
<path d="M4390 3063 c0 -6 8 -17 18 -24 16 -13 16 -13 2 6 -8 11 -16 22 -17
24 -2 2 -3 0 -3 -6z"/>
<path d="M3145 2917 c-1 -26 4 -44 11 -44 6 0 10 12 8 26 -1 14 -2 34 -3 44
-2 37 -16 15 -16 -26z"/>
<path d="M4865 2610 c-4 -6 -19 -10 -33 -9 -15 2 -34 -1 -42 -6 -18 -12 -42
-16 -36 -7 6 10 -1061 9 -1070 -1 -4 -4 -23 -7 -41 -7 -19 0 -32 -4 -29 -8 3
-5 -1 -9 -9 -9 -8 0 -12 4 -10 8 6 9 -16 6 -33 -4 -7 -5 -10 -12 -8 -16 3 -4
-1 -8 -9 -8 -8 0 -11 5 -8 11 4 6 -7 0 -25 -14 -17 -14 -45 -35 -62 -48 -16
-13 -42 -45 -58 -70 -23 -40 -27 -58 -26 -117 0 -71 23 -135 57 -163 12 -10
14 -8 13 10 0 13 -5 26 -11 30 -13 9 -14 140 -1 157 6 8 11 24 11 35 1 12 6
20 13 19 7 -2 11 3 9 10 -1 6 4 11 10 10 7 -2 12 2 10 8 -1 6 12 19 28 29 17
10 29 22 28 28 -2 6 6 9 17 7 10 -2 24 3 31 11 8 10 15 11 24 4 9 -8 15 -8 20
0 3 5 16 10 29 10 12 0 26 3 30 7 9 9 37 13 32 5 -2 -4 101 -7 229 -7 128 0
231 3 229 7 -5 7 17 5 31 -4 13 -8 14 -1367 1 -1387 -7 -10 -5 -12 5 -6 10 6
9 2 -2 -11 -9 -10 -15 -26 -14 -36 2 -9 -13 -31 -33 -50 -19 -18 -31 -26 -27
-18 5 8 -4 4 -20 -10 -16 -14 -25 -20 -22 -14 8 14 -39 12 -54 -3 -23 -23 21
-28 257 -28 235 0 240 0 240 20 0 17 -6 21 -32 21 -20 0 -30 -4 -27 -11 4 -5
-6 1 -22 15 -16 14 -24 18 -20 10 6 -11 3 -10 -12 3 -11 9 -22 14 -26 11 -4
-4 -5 3 -2 14 2 12 1 21 -3 19 -4 -1 -9 3 -10 8 -2 6 -9 16 -15 24 -16 18 -17
1420 -2 1429 14 9 36 11 31 4 -2 -4 83 -7 189 -7 106 0 191 3 189 7 -5 8 23 4
32 -5 4 -4 18 -7 31 -7 17 0 22 -4 17 -12 -5 -8 -2 -8 10 1 15 12 17 12 14 0
-2 -8 3 -13 10 -11 6 1 11 -4 10 -10 -2 -7 2 -12 8 -11 6 1 10 -10 9 -25 -1
-15 2 -32 6 -38 5 -6 9 -25 11 -42 1 -22 5 -29 13 -21 6 6 10 65 10 142 0 130
0 133 -22 135 -12 1 -25 -3 -28 -9 -5 -7 -11 -6 -20 1 -10 8 -15 8 -20 0z"/>
<path d="M3310 2344 c0 -11 7 -29 15 -40 13 -17 14 -16 3 16 -14 43 -18 49
-18 24z"/>
<path d="M3337 2260 c3 -11 10 -23 16 -27 7 -4 8 0 4 11 -4 10 -7 22 -7 27 0
5 -4 9 -9 9 -5 0 -7 -9 -4 -20z"/>
<path d="M3361 2203 c-1 -12 4 -25 9 -28 12 -7 12 2 0 30 -8 19 -9 19 -9 -2z"/>
<path d="M3395 2063 c18 -78 23 -123 21 -218 -1 -70 -7 -129 -14 -142 -14 -25
-15 -33 -4 -33 10 0 33 76 38 130 3 25 7 57 9 73 3 15 1 27 -3 27 -4 0 -8 17
-7 38 0 20 -5 54 -12 75 -7 20 -12 40 -12 42 2 15 -26 105 -31 105 -4 0 3 -44
15 -97z"/>
<path d="M2324 1734 c1 -13 21 -44 44 -69 23 -25 42 -49 43 -53 0 -4 6 -5 13
-4 6 2 8 0 3 -4 -9 -9 52 -74 70 -74 7 0 13 -7 13 -16 0 -8 5 -12 10 -9 6 3
10 3 10 -2 0 -9 79 -53 101 -56 8 -2 20 -6 27 -10 6 -5 12 -4 12 1 0 12 -56
33 -64 25 -3 -4 -6 -1 -6 5 0 6 -12 18 -27 26 -16 8 -49 32 -74 55 -26 22 -50
37 -54 33 -5 -4 -5 -1 -1 6 5 9 -1 24 -16 40 -31 34 -72 102 -62 102 13 0 -14
24 -29 26 -9 1 -13 -7 -13 -22z"/>
<path d="M3337 1587 c-21 -30 -48 -60 -62 -67 -14 -7 -25 -17 -25 -22 0 -17
40 13 77 59 21 27 40 50 43 53 6 6 11 30 7 30 -2 0 -20 -24 -40 -53z"/>
<path d="M3188 1469 c-41 -21 -52 -34 -15 -19 12 6 30 13 40 16 9 4 17 10 17
15 0 11 2 12 -42 -12z"/>
<path d="M2685 1430 c3 -5 8 -10 11 -10 2 0 4 5 4 10 0 6 -5 10 -11 10 -5 0
-7 -4 -4 -10z"/>
<path d="M2716 1419 c3 -5 12 -9 21 -9 19 0 9 13 -12 16 -8 1 -13 -2 -9 -7z"/>
<path d="M3010 1419 c-25 -4 -79 -8 -120 -9 -58 0 -71 -3 -57 -11 29 -17 233
4 254 25 8 7 -19 6 -77 -5z"/>
<path d="M2764 1413 c11 -11 46 -14 46 -3 0 6 -12 10 -27 10 -14 0 -23 -3 -19
-7z"/>
</g>
</svg>
